<svg width="43" height="42" viewBox="0 0 43 42" fill="none" xmlns="http://www.w3.org/2000/svg">
<path d="M40.0016 1.0016V3.66826M41.3349 2.33493H38.6683M34.0129 1.54426C34.0415 1.39133 34.1226 1.25321 34.2423 1.15381C34.362 1.05441 34.5127 1 34.6683 1C34.8238 1 34.9745 1.05441 35.0942 1.15381C35.2139 1.25321 35.295 1.39133 35.3236 1.54426L36.0243 5.2496C36.074 5.51303 36.202 5.75534 36.3916 5.94491C36.5812 6.13448 36.8235 6.2625 37.0869 6.31226L40.7923 7.01293C40.9452 7.04149 41.0833 7.12265 41.1827 7.24233C41.2821 7.36201 41.3365 7.51269 41.3365 7.66826C41.3365 7.82384 41.2821 7.97452 41.1827 8.0942C41.0833 8.21388 40.9452 8.29503 40.7923 8.3236L37.0869 9.02426C36.8235 9.07403 36.5812 9.20205 36.3916 9.39162C36.202 9.58119 36.074 9.8235 36.0243 10.0869L35.3236 13.7923C35.295 13.9452 35.2139 14.0833 35.0942 14.1827C34.9745 14.2821 34.8238 14.3365 34.6683 14.3365C34.5127 14.3365 34.362 14.2821 34.2423 14.1827C34.1226 14.0833 34.0415 13.9452 34.0129 13.7923L33.3123 10.0869C33.2625 9.8235 33.1345 9.58119 32.9449 9.39162C32.7553 9.20205 32.513 9.07403 32.2496 9.02426L28.5443 8.3236C28.3913 8.29503 28.2532 8.21388 28.1538 8.0942C28.0544 7.97452 28 7.82384 28 7.66826C28 7.51269 28.0544 7.36201 28.1538 7.24233C28.2532 7.12265 28.3913 7.04149 28.5443 7.01293L32.2496 6.31226C32.513 6.2625 32.7553 6.13448 32.9449 5.94491C33.1345 5.75534 33.2625 5.51303 33.3123 5.2496L34.0129 1.54426ZM30.6683 13.0016C30.6683 13.738 30.0713 14.3349 29.3349 14.3349C28.5985 14.3349 28.0016 13.738 28.0016 13.0016C28.0016 12.2652 28.5985 11.6683 29.3349 11.6683C30.0713 11.6683 30.6683 12.2652 30.6683 13.0016Z" stroke="#4434D4" stroke-width="2" stroke-linecap="round" stroke-linejoin="round"/>
<path d="M20 38V27.3333C20 26.9797 19.8595 26.6406 19.6095 26.3905C19.3594 26.1405 19.0203 26 18.6667 26H13.3333C12.9797 26 12.6406 26.1405 12.3905 26.3905C12.1405 26.6406 12 26.9797 12 27.3333V38M4 23.3333C3.99991 22.9454 4.08445 22.5622 4.24772 22.2103C4.41099 21.8584 4.64906 21.5464 4.94533 21.296L14.2787 13.296C14.76 12.8892 15.3698 12.666 16 12.666C16.6302 12.666 17.24 12.8892 17.7213 13.296L27.0547 21.296C27.3509 21.5464 27.589 21.8584 27.7523 22.2103C27.9156 22.5622 28.0001 22.9454 28 23.3333V35.3333C28 36.0406 27.719 36.7189 27.219 37.219C26.7189 37.7191 26.0406 38 25.3333 38H6.66667C5.95942 38 5.28115 37.7191 4.78105 37.219C4.28095 36.7189 4 36.0406 4 35.3333V23.3333Z" stroke="#4434D4" stroke-width="2" stroke-linecap="round" stroke-linejoin="round"/>
</svg>
